<svg id="TOP" xmlns="http://www.w3.org/2000/svg" viewBox="0 0 95 89.32">
  <defs>
    <style>
      .cls-1 {
        fill: #fff;
      }
    </style>
  </defs>
  <title>sonasober-layout draft</title>
  <g>
    <path class="cls-1" d="M42.92,28.66c-0.19,1.85-.33,3.54-0.54,5.22-0.76,6-1.92,11.84-5.7,16.76-4.21,5.5-11.3,5.12-15-.74-0.6-1-1-2-1.59-3a5.16,5.16,0,0,0-6.4-2A5.58,5.58,0,0,0,10.9,51.3c3,10.24,14.94,16.35,25,12.81C41.45,62.13,45,58,47.67,53c1.41-2.68,3.24-2.77,4.75-.14a20.7,20.7,0,0,1,2,4.78c2.33,8.45,2.68,17.1,2.27,25.8-0.15,3.28,1.78,5.72,4.83,5.9,3.32,0.2,5.47-1.63,5.59-5,0.41-12.45,0-24.76-5.2-36.46-0.83-1.89-.42-4.38-0.39-6.59,0-1.47,1-1.6,2.38-1.46a40.86,40.86,0,0,0,8.76.38,13.19,13.19,0,0,0,11-7.63,5.49,5.49,0,0,0-1.95-7.28,5.17,5.17,0,0,0-6.91,1.57c-2.32,3.12-4.45,4.11-8,2.48a36.78,36.78,0,0,1-9.25-6c-7.83-7.12-17.31-6.56-24.35-1.69-5.84,4-8,10.24-8.93,17-0.48,3.42,1.28,6.38,4.07,6.87,3,0.52,5.26-1.37,6.25-4.91a56.56,56.56,0,0,1,2.52-7.58A6.86,6.86,0,0,1,42.92,28.66ZM58.72,0.07C53.89-.59,49,3.4,48.86,9.42a9.64,9.64,0,1,0,19.28.14A9,9,0,0,0,58.72.07Z"/>
    <path class="cls-1" d="M42.92,28.66a6.86,6.86,0,0,0-5.78,4.28,56.56,56.56,0,0,0-2.52,7.58c-1,3.54-3.29,5.43-6.25,4.91-2.78-.49-4.54-3.46-4.07-6.87,0.94-6.73,3.09-12.92,8.93-17,7-4.88,16.52-5.44,24.35,1.69a36.78,36.78,0,0,0,9.25,6c3.52,1.63,5.64.64,8-2.48a5.17,5.17,0,0,1,6.91-1.57,5.49,5.49,0,0,1,1.95,7.28,13.19,13.19,0,0,1-11,7.63,40.86,40.86,0,0,1-8.76-.38c-1.37-.14-2.35,0-2.38,1.46,0,2.21-.45,4.7.39,6.59,5.17,11.7,5.61,24,5.2,36.46-0.11,3.42-2.26,5.24-5.59,5-3-.18-5-2.62-4.83-5.9,0.41-8.7.06-17.35-2.27-25.8a20.7,20.7,0,0,0-2-4.78c-1.51-2.62-3.34-2.54-4.75.14C45,58,41.45,62.13,35.87,64.11c-10,3.54-22-2.56-25-12.81a5.58,5.58,0,0,1,2.83-6.36,5.16,5.16,0,0,1,6.4,2c0.61,0.94,1,2,1.59,3,3.67,5.86,10.76,6.23,15,.74,3.77-4.93,4.94-10.79,5.7-16.76C42.6,32.19,42.74,30.5,42.92,28.66Z"/>
    <path class="cls-1" d="M58.72,0.07a9,9,0,0,1,9.42,9.48,9.64,9.64,0,1,1-19.28-.14C49,3.4,53.89-.59,58.72.07Z"/>
  </g>
</svg>
