<?xml version="1.0"?>
<svg xmlns="http://www.w3.org/2000/svg" xmlns:xlink="http://www.w3.org/1999/xlink" version="1.1" id="Capa_1" x="0px" y="0px" viewBox="0 0 511.924 511.924" style="enable-background:new 0 0 511.924 511.924;" xml:space="preserve" width="512px" height="512px"><g><g>
	<g>
		<path d="M92.229,155.977h-0.086c-2.203,0-3.953,1.789-3.953,3.999c0,2.211,1.828,4,4.039,4c2.203,0,3.999-1.789,3.999-4    C96.228,157.766,94.432,155.977,92.229,155.977z" data-original="#000000" class="active-path" data-old_color="#ffffff" fill="#ffffff"/>
	</g>
</g><g>
	<g>
		<path d="M124.224,155.977h-0.086c-2.202,0-3.952,1.789-3.952,3.999c0,2.211,1.828,4,4.038,4c2.203,0,4-1.789,4-4    C128.224,157.766,126.427,155.977,124.224,155.977z" data-original="#000000" class="active-path" data-old_color="#ffffff" fill="#ffffff"/>
	</g>
</g><g>
	<g>
		<path d="M107.983,75.989c-41.9,0-75.989,34.089-75.989,75.988c0,2.211,1.789,4,4,4s4-1.789,4-4    c0-37.486,30.503-67.989,67.99-67.989c37.487,0,67.99,30.503,67.99,67.989c0,2.211,1.79,4,4,4c2.21,0,3.999-1.789,3.998-4    C183.972,110.078,149.883,75.989,107.983,75.989z" data-original="#000000" class="active-path" data-old_color="#ffffff" fill="#ffffff"/>
	</g>
</g><g>
	<g>
		<path d="M46.822,405.11C46.439,404.72,8,365.296,8,295.956c0-36.423,8.397-56.148,16.513-75.215    c7.608-17.881,15.482-36.37,15.482-67.428c0-2.21-1.789-3.999-4-3.999s-4,1.789-4,3.999c0,29.425-7.21,46.36-14.849,64.295    C8.718,237.417,0,257.899,0,295.956c0,72.809,39.486,113.131,41.166,114.811c0.782,0.781,1.805,1.172,2.828,1.172    c1.023,0,2.039-0.391,2.82-1.173C48.377,409.212,48.384,406.68,46.822,405.11z" data-original="#000000" class="active-path" data-old_color="#ffffff" fill="#ffffff"/>
	</g>
</g><g>
	<g>
		<path d="M198.824,217.609c-7.64-17.935-14.85-34.87-14.85-64.295c0-2.21-1.789-3.999-4-3.999s-4,1.789-4,3.999    c0,31.058,7.874,49.548,15.482,67.428c8.116,19.067,16.513,38.791,16.513,75.215c0,69.34-38.439,108.763-38.822,109.154    c-1.562,1.57-1.554,4.101,0.008,5.656c0.781,0.781,1.797,1.172,2.82,1.172s2.047-0.391,2.829-1.171    c1.68-1.68,41.166-42.002,41.166-114.811C215.97,257.901,207.252,237.419,198.824,217.609z" data-original="#000000" class="active-path" data-old_color="#ffffff" fill="#ffffff"/>
	</g>
</g><g>
	<g>
		<path d="M179.974,411.939H35.995c-2.211,0-4,1.789-4,4c0,2.209,1.79,3.998,4,3.998h143.979c2.21,0,3.999-1.789,4-3.998    C183.974,413.728,182.184,411.939,179.974,411.939z" data-original="#000000" class="active-path" data-old_color="#ffffff" fill="#ffffff"/>
	</g>
</g><g>
	<g>
		<path d="M35.995,427.937c-2.203,0-4-1.797-4-4s1.797-4,4-4c2.211,0,4-1.789,4-3.998c0-2.211-1.79-4-4-4    c-6.616,0-11.998,5.383-11.998,11.998s5.382,11.998,11.998,11.998c2.211,0,4-1.789,4-4    C39.995,429.726,38.205,427.937,35.995,427.937z" data-original="#000000" class="active-path" data-old_color="#ffffff" fill="#ffffff"/>
	</g>
</g><g>
	<g>
		<path d="M179.982,411.939c-2.211,0-4,1.789-4,4c0,2.209,1.79,3.998,4,3.998c2.203,0,4,1.797,4,4s-1.797,4-4,4    c-2.211,0-4,1.789-4,3.998c0,2.211,1.79,4,4,4c6.616,0,11.999-5.383,11.999-11.998S186.598,411.939,179.982,411.939z" data-original="#000000" class="active-path" data-old_color="#ffffff" fill="#ffffff"/>
	</g>
</g><g>
	<g>
		<path d="M179.982,427.937H35.995c-2.211,0-4,1.789-4,3.998c0,2.211,1.79,4,4,4h143.987c2.21,0,3.999-1.789,4-4    C183.982,429.726,182.192,427.937,179.982,427.937z" data-original="#000000" class="active-path" data-old_color="#ffffff" fill="#ffffff"/>
	</g>
</g><g>
	<g>
		<path d="M107.984,99.985c-28.667,0-51.992,23.325-51.992,51.992c0,28.668,23.325,51.992,51.992,51.992    c28.668,0,51.993-23.324,51.992-51.992C159.976,123.31,136.651,99.985,107.984,99.985z M107.984,195.971    c-24.255,0-43.994-19.74-43.994-43.994c0-24.254,19.74-43.993,43.994-43.993c24.255,0,43.994,19.739,43.994,43.993    C151.978,176.232,132.239,195.971,107.984,195.971z" data-original="#000000" class="active-path" data-old_color="#ffffff" fill="#ffffff"/>
	</g>
</g><g>
	<g>
		<path d="M155.977,147.978c-15.904,0-30.621-8.616-38.393-22.489c-1.086-1.937-3.53-2.609-5.444-1.539    c-1.93,1.086-2.617,3.523-1.539,5.445c9.194,16.395,26.582,26.582,45.376,26.582c2.211,0,4-1.789,4-4    C159.977,149.767,158.188,147.978,155.977,147.978z" data-original="#000000" class="active-path" data-old_color="#ffffff" fill="#ffffff"/>
	</g>
</g><g>
	<g>
		<path d="M128.005,103.985c-2.054-0.828-4.382,0.117-5.234,2.155c-10.576,25.419-35.22,41.838-62.779,41.838    c-2.211,0-4,1.789-4,3.999c0,2.211,1.789,4,4,4c30.8,0,58.343-18.357,70.169-46.759    C131.005,107.179,130.044,104.836,128.005,103.985z" data-original="#000000" class="active-path" data-old_color="#ffffff" fill="#ffffff"/>
	</g>
</g><g>
	<g>
		<path d="M107.984,175.974c-2.085,0-3.507-0.508-4.093-0.867c-0.398-1.789-1.991-3.133-3.905-3.133c-2.211,0-4,1.789-4,4    c0,4.632,5.046,7.999,11.998,7.999c2.211,0,4-1.789,4-4S110.194,175.974,107.984,175.974z" data-original="#000000" class="active-path" data-old_color="#ffffff" fill="#ffffff"/>
	</g>
</g><g>
	<g>
		<path d="M115.982,171.974c-1.913,0-3.507,1.344-3.905,3.133c-0.586,0.359-2.008,0.867-4.093,0.867c-2.211,0-4,1.788-4,3.999    s1.79,4,4,4c6.953,0,11.999-3.367,11.998-7.999C119.982,173.763,118.193,171.974,115.982,171.974z" data-original="#000000" class="active-path" data-old_color="#ffffff" fill="#ffffff"/>
	</g>
</g><g>
	<g>
		<path d="M107.983,227.966c-44.751,0-59.803-28.582-60.42-29.801c-0.992-1.952-3.375-2.772-5.366-1.757    c-1.969,0.992-2.765,3.382-1.781,5.351c0.695,1.398,17.677,34.206,67.568,34.206c2.211,0,4-1.789,3.999-4    C111.983,229.755,110.193,227.966,107.983,227.966z" data-original="#000000" class="active-path" data-old_color="#ffffff" fill="#ffffff"/>
	</g>
</g><g>
	<g>
		<path d="M173.764,196.392c-1.969-0.976-4.375-0.187-5.367,1.789c-0.149,0.297-15.412,29.785-60.413,29.785    c-2.211,0-4,1.789-4,3.999c0,2.211,1.79,4,4,4c49.892,0,66.873-32.808,67.569-34.206    C176.537,199.782,175.74,197.384,173.764,196.392z" data-original="#000000" class="active-path" data-old_color="#ffffff" fill="#ffffff"/>
	</g>
</g><g>
	<g>
		<path d="M110.812,237.136c-1.562-1.562-4.093-1.562-5.655,0l-15.998,15.998c-1.562,1.562-1.562,4.094,0,5.656    c0.781,0.781,1.805,1.172,2.828,1.172c1.023,0,2.047-0.391,2.827-1.172l15.998-15.998    C112.374,241.23,112.374,238.698,110.812,237.136z" data-original="#000000" class="active-path" data-old_color="#ffffff" fill="#ffffff"/>
	</g>
</g><g>
	<g>
		<path d="M91.987,235.964c-2.211,0-3.999,1.789-3.999,4v15.998c0,2.211,1.788,4,3.999,4s3.999-1.789,4-4v-15.998    C95.987,237.753,94.198,235.964,91.987,235.964z" data-original="#000000" class="active-path" data-old_color="#ffffff" fill="#ffffff"/>
	</g>
</g><g>
	<g>
		<path d="M126.809,253.134l-15.998-15.998c-1.562-1.562-4.093-1.562-5.655,0c-1.562,1.563-1.562,4.094,0,5.656l15.998,15.998    c0.782,0.781,1.805,1.172,2.828,1.172s2.047-0.391,2.827-1.172C128.371,257.227,128.371,254.696,126.809,253.134z" data-original="#000000" class="active-path" data-old_color="#ffffff" fill="#ffffff"/>
	</g>
</g><g>
	<g>
		<path d="M123.982,235.964c-2.21,0-3.999,1.789-3.999,4v15.998c0,2.211,1.789,4,3.999,4c2.211,0,4-1.789,4-4v-15.998    C127.982,237.753,126.193,235.964,123.982,235.964z" data-original="#000000" class="active-path" data-old_color="#ffffff" fill="#ffffff"/>
	</g>
</g><g>
	<g>
		<path d="M189.526,244.276c-2.046-0.851-4.382,0.11-5.241,2.133c-0.156,0.367-15.826,36.745-53.945,53.897    c-2.015,0.906-2.913,3.273-2.007,5.289c0.664,1.484,2.125,2.359,3.648,2.359c0.555,0,1.109-0.109,1.64-0.352    c40.954-18.435,57.358-56.476,58.038-58.085C192.518,247.479,191.557,245.135,189.526,244.276z" data-original="#000000" class="active-path" data-old_color="#ffffff" fill="#ffffff"/>
	</g>
</g><g>
	<g>
		<path d="M198.807,301.149c-1.547-1.56-4.07-1.584-5.648-0.039c-0.156,0.148-16.06,15.263-61.834,22.896    c-2.18,0.36-3.656,2.42-3.289,4.6c0.328,1.961,2.023,3.344,3.937,3.344c0.219,0,0.446-0.015,0.664-0.055    c48.703-8.115,65.474-24.425,66.162-25.113C200.353,305.227,200.353,302.711,198.807,301.149z" data-original="#000000" class="active-path" data-old_color="#ffffff" fill="#ffffff"/>
	</g>
</g><g>
	<g>
		<path d="M85.628,300.306c-38.002-17.098-53.789-53.53-53.945-53.897c-0.866-2.031-3.218-2.992-5.241-2.125    c-2.03,0.859-2.991,3.195-2.132,5.233c0.679,1.609,17.083,39.649,58.038,58.085c0.531,0.243,1.085,0.352,1.64,0.352    c1.523,0,2.984-0.875,3.648-2.359C88.542,303.579,87.644,301.212,85.628,300.306z" data-original="#000000" class="active-path" data-old_color="#ffffff" fill="#ffffff"/>
	</g>
</g><g>
	<g>
		<path d="M84.644,324.006c-45.571-7.593-61.538-22.607-61.834-22.896c-1.547-1.545-4.078-1.537-5.64,0.016    c-1.562,1.562-1.562,4.094,0,5.656c0.688,0.687,17.459,16.998,66.162,25.113c0.219,0.039,0.445,0.055,0.664,0.055    c1.914,0,3.609-1.383,3.937-3.344C88.3,326.426,86.824,324.365,84.644,324.006z" data-original="#000000" class="active-path" data-old_color="#ffffff" fill="#ffffff"/>
	</g>
</g><g>
	<g>
		<path d="M107.984,299.956c-11.03,0-19.997,8.967-19.997,19.996s8.967,19.996,19.997,19.996c11.03,0,19.997-8.967,19.997-19.996    S119.014,299.956,107.984,299.956z M107.984,331.95c-6.616,0-11.998-5.383-11.998-11.998c0-6.617,5.382-11.998,11.998-11.998    c6.617,0,11.999,5.381,11.999,11.998C119.983,326.567,114.6,331.95,107.984,331.95z" data-original="#000000" class="active-path" data-old_color="#ffffff" fill="#ffffff"/>
	</g>
</g><g>
	<g>
		<path d="M54.821,357.118c-1.563-1.562-4.094-1.562-5.656,0l-7.999,8c-1.562,1.56-1.562,4.092,0,5.654    c0.782,0.781,1.805,1.172,2.828,1.172c1.023,0,2.047-0.39,2.828-1.172l7.999-7.998C56.383,361.212,56.383,358.68,54.821,357.118z" data-original="#000000" class="active-path" data-old_color="#ffffff" fill="#ffffff"/>
	</g>
</g><g>
	<g>
		<path d="M62.82,365.118l-7.999-8c-1.563-1.562-4.094-1.562-5.656,0s-1.562,4.094,0,5.656l7.999,7.998    c0.781,0.781,1.805,1.172,2.828,1.172c1.023,0,2.046-0.39,2.828-1.172C64.382,369.21,64.382,366.679,62.82,365.118z" data-original="#000000" class="active-path" data-old_color="#ffffff" fill="#ffffff"/>
	</g>
</g><g>
	<g>
		<path d="M70.818,357.118c-1.562-1.562-4.093-1.562-5.655,0l-7.999,8c-1.562,1.56-1.562,4.092,0,5.654    c0.781,0.781,1.805,1.172,2.828,1.172c1.023,0,2.046-0.39,2.827-1.172l7.999-7.998C72.38,361.212,72.38,358.68,70.818,357.118z" data-original="#000000" class="active-path" data-old_color="#ffffff" fill="#ffffff"/>
	</g>
</g><g>
	<g>
		<path d="M78.816,365.118l-7.999-8c-1.562-1.562-4.093-1.562-5.655,0s-1.562,4.094,0,5.656l7.999,7.998    c0.782,0.781,1.805,1.172,2.828,1.172c1.023,0,2.047-0.39,2.827-1.172C80.378,369.21,80.378,366.679,78.816,365.118z" data-original="#000000" class="active-path" data-old_color="#ffffff" fill="#ffffff"/>
	</g>
</g><g>
	<g>
		<path d="M86.815,357.118c-1.562-1.562-4.093-1.562-5.655,0l-7.999,8c-1.562,1.56-1.562,4.092,0,5.654    c0.782,0.781,1.805,1.172,2.828,1.172c1.023,0,2.047-0.39,2.827-1.172l7.999-7.998C88.377,361.212,88.377,358.68,86.815,357.118z" data-original="#000000" class="active-path" data-old_color="#ffffff" fill="#ffffff"/>
	</g>
</g><g>
	<g>
		<path d="M94.814,365.118l-7.999-8c-1.562-1.562-4.093-1.562-5.655,0s-1.562,4.094,0,5.656l7.999,7.998    c0.781,0.781,1.805,1.172,2.828,1.172c1.023,0,2.047-0.39,2.827-1.172C96.376,369.21,96.376,366.679,94.814,365.118z" data-original="#000000" class="active-path" data-old_color="#ffffff" fill="#ffffff"/>
	</g>
</g><g>
	<g>
		<path d="M102.813,357.118c-1.562-1.562-4.093-1.562-5.655,0l-7.999,8c-1.562,1.56-1.562,4.092,0,5.654    c0.781,0.781,1.805,1.172,2.828,1.172c1.023,0,2.047-0.39,2.827-1.172l7.999-7.998    C104.375,361.212,104.375,358.68,102.813,357.118z" data-original="#000000" class="active-path" data-old_color="#ffffff" fill="#ffffff"/>
	</g>
</g><g>
	<g>
		<path d="M110.811,365.118l-7.999-8c-1.562-1.562-4.093-1.562-5.655,0s-1.562,4.094,0,5.656l7.999,7.998    c0.782,0.781,1.805,1.172,2.828,1.172c1.024,0,2.047-0.39,2.827-1.172C112.373,369.21,112.373,366.679,110.811,365.118z" data-original="#000000" class="active-path" data-old_color="#ffffff" fill="#ffffff"/>
	</g>
</g><g>
	<g>
		<path d="M118.81,357.118c-1.562-1.562-4.093-1.562-5.655,0l-7.999,8c-1.562,1.56-1.562,4.092,0,5.654    c0.782,0.781,1.805,1.172,2.828,1.172c1.024,0,2.047-0.39,2.827-1.172l7.999-7.998C120.372,361.212,120.372,358.68,118.81,357.118    z" data-original="#000000" class="active-path" data-old_color="#ffffff" fill="#ffffff"/>
	</g>
</g><g>
	<g>
		<path d="M126.809,365.118l-7.999-8c-1.562-1.562-4.093-1.562-5.655,0s-1.562,4.094,0,5.656l7.999,7.998    c0.782,0.781,1.805,1.172,2.828,1.172s2.047-0.39,2.827-1.172C128.371,369.21,128.371,366.679,126.809,365.118z" data-original="#000000" class="active-path" data-old_color="#ffffff" fill="#ffffff"/>
	</g>
</g><g>
	<g>
		<path d="M134.809,357.118c-1.562-1.562-4.094-1.562-5.656,0l-7.999,8c-1.562,1.56-1.562,4.092,0,5.654    c0.782,0.781,1.805,1.172,2.828,1.172s2.047-0.39,2.828-1.172l7.999-7.998C136.371,361.212,136.371,358.68,134.809,357.118z" data-original="#000000" class="active-path" data-old_color="#ffffff" fill="#ffffff"/>
	</g>
</g><g>
	<g>
		<path d="M142.808,365.118l-7.999-8c-1.562-1.562-4.094-1.562-5.656,0c-1.562,1.562-1.562,4.094,0,5.656l7.999,7.998    c0.781,0.781,1.805,1.172,2.828,1.172s2.046-0.39,2.828-1.172C144.37,369.21,144.37,366.679,142.808,365.118z" data-original="#000000" class="active-path" data-old_color="#ffffff" fill="#ffffff"/>
	</g>
</g><g>
	<g>
		<path d="M150.806,357.118c-1.562-1.562-4.093-1.562-5.655,0l-7.999,8c-1.562,1.56-1.562,4.092,0,5.654    c0.781,0.781,1.805,1.172,2.828,1.172s2.046-0.39,2.827-1.172l7.999-7.998C152.368,361.212,152.368,358.68,150.806,357.118z" data-original="#000000" class="active-path" data-old_color="#ffffff" fill="#ffffff"/>
	</g>
</g><g>
	<g>
		<path d="M158.805,365.118l-7.999-8c-1.562-1.562-4.093-1.562-5.655,0s-1.562,4.094,0,5.656l7.999,7.998    c0.781,0.781,1.804,1.172,2.827,1.172c1.024,0,2.047-0.39,2.828-1.172C160.367,369.21,160.367,366.679,158.805,365.118z" data-original="#000000" class="active-path" data-old_color="#ffffff" fill="#ffffff"/>
	</g>
</g><g>
	<g>
		<path d="M166.804,357.118c-1.562-1.562-4.093-1.562-5.655,0l-7.999,8c-1.562,1.56-1.562,4.092,0,5.654    c0.781,0.781,1.804,1.172,2.827,1.172c1.024,0,2.047-0.39,2.828-1.172l7.999-7.998    C168.366,361.212,168.366,358.68,166.804,357.118z" data-original="#000000" class="active-path" data-old_color="#ffffff" fill="#ffffff"/>
	</g>
</g><g>
	<g>
		<path d="M174.802,365.118l-7.999-8c-1.562-1.562-4.093-1.562-5.655,0c-1.562,1.562-1.562,4.094,0,5.656l7.999,7.998    c0.781,0.781,1.805,1.172,2.828,1.172s2.047-0.39,2.827-1.172C176.364,369.21,176.364,366.679,174.802,365.118z" data-original="#000000" class="active-path" data-old_color="#ffffff" fill="#ffffff"/>
	</g>
</g><g>
	<g>
		<path d="M70.818,381.115c-1.562-1.562-4.093-1.562-5.655,0l-7.999,8c-1.562,1.562-1.562,4.092,0,5.654    c0.781,0.781,1.805,1.172,2.828,1.172c1.023,0,2.046-0.391,2.827-1.172l7.999-7.998C72.38,385.209,72.38,382.677,70.818,381.115z" data-original="#000000" class="active-path" data-old_color="#ffffff" fill="#ffffff"/>
	</g>
</g><g>
	<g>
		<path d="M78.816,389.115l-7.999-8c-1.562-1.562-4.093-1.562-5.655,0s-1.562,4.094,0,5.656l7.999,7.998    c0.782,0.781,1.805,1.172,2.828,1.172c1.023,0,2.047-0.391,2.827-1.172C80.378,393.207,80.378,390.677,78.816,389.115z" data-original="#000000" class="active-path" data-old_color="#ffffff" fill="#ffffff"/>
	</g>
</g><g>
	<g>
		<path d="M86.815,381.115c-1.562-1.562-4.093-1.562-5.655,0l-7.999,8c-1.562,1.562-1.562,4.092,0,5.654    c0.782,0.781,1.805,1.172,2.828,1.172c1.023,0,2.047-0.391,2.827-1.172l7.999-7.998C88.377,385.209,88.377,382.677,86.815,381.115    z" data-original="#000000" class="active-path" data-old_color="#ffffff" fill="#ffffff"/>
	</g>
</g><g>
	<g>
		<path d="M94.814,389.115l-7.999-8c-1.562-1.562-4.093-1.562-5.655,0s-1.562,4.094,0,5.656l7.999,7.998    c0.781,0.781,1.805,1.172,2.828,1.172c1.023,0,2.047-0.391,2.827-1.172C96.376,393.207,96.376,390.677,94.814,389.115z" data-original="#000000" class="active-path" data-old_color="#ffffff" fill="#ffffff"/>
	</g>
</g><g>
	<g>
		<path d="M102.813,381.115c-1.562-1.562-4.093-1.562-5.655,0l-7.999,8c-1.562,1.562-1.562,4.092,0,5.654    c0.781,0.781,1.805,1.172,2.828,1.172c1.023,0,2.047-0.391,2.827-1.172l7.999-7.998    C104.375,385.209,104.375,382.677,102.813,381.115z" data-original="#000000" class="active-path" data-old_color="#ffffff" fill="#ffffff"/>
	</g>
</g><g>
	<g>
		<path d="M110.811,389.115l-7.999-8c-1.562-1.562-4.093-1.562-5.655,0s-1.562,4.094,0,5.656l7.999,7.998    c0.782,0.781,1.805,1.172,2.828,1.172c1.024,0,2.047-0.391,2.827-1.172C112.373,393.207,112.373,390.677,110.811,389.115z" data-original="#000000" class="active-path" data-old_color="#ffffff" fill="#ffffff"/>
	</g>
</g><g>
	<g>
		<path d="M118.81,381.115c-1.562-1.562-4.093-1.562-5.655,0l-7.999,8c-1.562,1.562-1.562,4.092,0,5.654    c0.782,0.781,1.805,1.172,2.828,1.172c1.024,0,2.047-0.391,2.827-1.172l7.999-7.998    C120.372,385.209,120.372,382.677,118.81,381.115z" data-original="#000000" class="active-path" data-old_color="#ffffff" fill="#ffffff"/>
	</g>
</g><g>
	<g>
		<path d="M126.809,389.115l-7.999-8c-1.562-1.562-4.093-1.562-5.655,0s-1.562,4.094,0,5.656l7.999,7.998    c0.782,0.781,1.805,1.172,2.828,1.172s2.047-0.391,2.827-1.172C128.371,393.207,128.371,390.677,126.809,389.115z" data-original="#000000" class="active-path" data-old_color="#ffffff" fill="#ffffff"/>
	</g>
</g><g>
	<g>
		<path d="M134.809,381.115c-1.562-1.562-4.094-1.562-5.656,0l-7.999,8c-1.562,1.562-1.562,4.092,0,5.654    c0.782,0.781,1.805,1.172,2.828,1.172s2.047-0.391,2.828-1.172l7.999-7.998C136.371,385.209,136.371,382.677,134.809,381.115z" data-original="#000000" class="active-path" data-old_color="#ffffff" fill="#ffffff"/>
	</g>
</g><g>
	<g>
		<path d="M142.808,389.115l-7.999-8c-1.562-1.562-4.094-1.562-5.656,0c-1.562,1.562-1.562,4.094,0,5.656l7.999,7.998    c0.781,0.781,1.805,1.172,2.828,1.172s2.046-0.391,2.828-1.172C144.37,393.207,144.37,390.677,142.808,389.115z" data-original="#000000" class="active-path" data-old_color="#ffffff" fill="#ffffff"/>
	</g>
</g><g>
	<g>
		<path d="M150.806,381.115c-1.562-1.562-4.093-1.562-5.655,0l-7.999,8c-1.562,1.562-1.562,4.092,0,5.654    c0.781,0.781,1.805,1.172,2.828,1.172s2.046-0.391,2.827-1.172l7.999-7.998C152.368,385.209,152.368,382.677,150.806,381.115z" data-original="#000000" class="active-path" data-old_color="#ffffff" fill="#ffffff"/>
	</g>
</g><g>
	<g>
		<path d="M158.805,389.115l-7.999-8c-1.562-1.562-4.093-1.562-5.655,0s-1.562,4.094,0,5.656l7.999,7.998    c0.781,0.781,1.804,1.172,2.827,1.172c1.024,0,2.047-0.391,2.828-1.172C160.367,393.207,160.367,390.677,158.805,389.115z" data-original="#000000" class="active-path" data-old_color="#ffffff" fill="#ffffff"/>
	</g>
</g><g>
	<g>
		<path d="M308.196,251.962h-0.086c-2.203,0-3.953,1.79-3.953,4c0,2.211,1.828,4,4.039,4c2.204,0,4-1.789,4-4    S310.399,251.962,308.196,251.962z" data-original="#000000" class="active-path" data-old_color="#ffffff" fill="#ffffff"/>
	</g>
</g><g>
	<g>
		<path d="M324.194,251.962h-0.086c-2.203,0-3.953,1.79-3.953,4c0,2.211,1.828,4,4.039,4c2.204,0,4-1.789,4-4    S326.397,251.962,324.194,251.962z" data-original="#000000" class="active-path" data-old_color="#ffffff" fill="#ffffff"/>
	</g>
</g><g>
	<g>
		<path d="M315.954,195.97c-28.668,0-51.992,23.325-51.992,51.992c0,2.211,1.787,4,3.998,4s4-1.79,4-4    c0-24.255,19.738-43.994,43.994-43.994c24.254,0,43.992,19.74,43.992,43.994c0,2.211,1.789,4,4,4s4-1.789,4-4    C367.946,219.295,344.62,195.97,315.954,195.97z" data-original="#000000" class="active-path" data-old_color="#ffffff" fill="#ffffff"/>
	</g>
</g><g>
	<g>
		<path d="M278.599,420.936c-0.304-0.273-30.635-27.582-30.635-74.668c0-24.793,6.225-38.236,12.256-51.242    c5.771-12.459,11.74-25.347,11.74-47.063c0-2.211-1.789-4-4-4s-3.998,1.79-3.998,4c0,19.958-5.344,31.487-11.008,43.704    c-6.382,13.788-12.99,28.051-12.99,54.602c0,50.836,31.996,79.481,33.355,80.676c0.766,0.664,1.703,0.992,2.633,0.992    c1.11,0,2.217-0.461,3.006-1.36C280.419,424.92,280.255,422.389,278.599,420.936z" data-original="#000000" class="active-path" data-old_color="#ffffff" fill="#ffffff"/>
	</g>
</g><g>
	<g>
		<path d="M378.952,291.668c-5.664-12.217-11.006-23.746-11.006-43.704c0-2.211-1.789-4-4-4s-4,1.79-4,4    c0,21.715,5.969,34.604,11.74,47.063c6.031,13.006,12.256,26.449,12.256,51.242c0,47.086-30.33,74.395-30.635,74.668    c-1.656,1.453-1.82,3.985-0.359,5.641c0.789,0.898,1.891,1.359,3.006,1.359c0.93,0,1.867-0.329,2.633-0.991    c1.359-1.196,33.355-29.84,33.355-80.676C391.942,319.719,385.333,305.455,378.952,291.668z" data-original="#000000" class="active-path" data-old_color="#ffffff" fill="#ffffff"/>
	</g>
</g><g>
	<g>
		<path d="M363.946,427.937H267.96c-2.211,0-3.998,1.789-3.998,3.998c0,2.211,1.787,4,3.998,4h95.986c2.211,0,4-1.789,4-4    C367.946,429.726,366.157,427.937,363.946,427.937z" data-original="#000000" class="active-path" data-old_color="#ffffff" fill="#ffffff"/>
	</g>
</g><g>
	<g>
		<path d="M315.954,211.968c-19.85,0-36.004,16.147-36.004,35.987c0,19.849,16.154,36.003,36.004,36.003    c19.848,0,35.994-16.154,35.994-36.003C351.948,228.114,335.802,211.968,315.954,211.968z M315.954,275.958    c-15.443,0-28.004-12.561-28.004-28.003c0-15.435,12.561-27.988,28.004-27.988c15.434,0,27.994,12.553,27.994,27.988    C343.948,263.397,331.388,275.958,315.954,275.958z" data-original="#000000" class="active-path" data-old_color="#ffffff" fill="#ffffff"/>
	</g>
</g><g>
	<g>
		<path d="M348.065,242.979c-10.264-0.336-19.395-5.882-24.418-14.841c-1.086-1.937-3.531-2.609-5.445-1.539    c-1.928,1.086-2.615,3.522-1.539,5.444c6.414,11.428,18.053,18.505,31.137,18.935c0.047,0,0.094,0,0.133,0    c2.148,0,3.929-1.703,3.999-3.866C352.003,244.901,350.268,243.057,348.065,242.979z" data-original="#000000" class="active-path" data-old_color="#ffffff" fill="#ffffff"/>
	</g>
</g><g>
	<g>
		<path d="M329.576,214.64c-1.975-0.922-4.373-0.054-5.311,1.953c-7.367,15.896-22.84,26.011-40.385,26.386    c-2.211,0.047-3.961,1.875-3.914,4.086c0.047,2.179,1.828,3.913,4,3.913c0.031,0,0.055,0,0.086,0    c20.614-0.445,38.807-12.334,47.477-31.026C332.451,217.952,331.584,215.569,329.576,214.64z" data-original="#000000" class="active-path" data-old_color="#ffffff" fill="#ffffff"/>
	</g>
</g><g>
	<g>
		<path d="M315.953,299.956c-29.472,0-35.902-20.155-36.16-21.014c-0.625-2.109-2.849-3.328-4.943-2.711    c-2.125,0.617-3.343,2.836-2.734,4.953c0.078,0.274,8.162,26.77,43.838,26.77c2.209,0,3.997-1.789,3.997-4    S318.162,299.956,315.953,299.956z" data-original="#000000" class="active-path" data-old_color="#ffffff" fill="#ffffff"/>
	</g>
</g><g>
	<g>
		<path d="M357.079,276.254c-2.076-0.656-4.334,0.579-4.967,2.688c-0.258,0.86-6.695,21.014-36.158,21.014c-2.211,0-4,1.787-4,3.998    s1.789,4,4,4c35.666,0,43.758-26.496,43.836-26.762C360.399,279.074,359.188,276.871,357.079,276.254z" data-original="#000000" class="active-path" data-old_color="#ffffff" fill="#ffffff"/>
	</g>
</g><g>
	<g>
		<path d="M364.861,308.072c-2.094-0.461-4.282,0.82-4.805,2.961c-0.18,0.719-4.562,17.723-29.746,29.049    c-2.014,0.906-2.912,3.273-2.006,5.289c0.664,1.484,2.123,2.359,3.646,2.359c0.555,0,1.11-0.11,1.641-0.352    c29.027-13.06,34.051-33.66,34.254-34.533C368.338,310.705,367.002,308.58,364.861,308.072z" data-original="#000000" class="active-path" data-old_color="#ffffff" fill="#ffffff"/>
	</g>
</g><g>
	<g>
		<path d="M374.17,340.471c-1.781-1.219-4.258-0.758-5.531,1c-0.063,0.093-7.147,9.492-37.346,14.529    c-2.178,0.36-3.654,2.422-3.287,4.602c0.329,1.961,2.022,3.344,3.936,3.344c0.219,0,0.446-0.015,0.664-0.055    c33.84-5.64,41.892-16.74,42.697-17.99C376.482,344.08,375.959,341.69,374.17,340.471z" data-original="#000000" class="active-path" data-old_color="#ffffff" fill="#ffffff"/>
	</g>
</g><g>
	<g>
		<path d="M301.596,340.299c-25.09-11.287-29.535-28.408-29.738-29.244c-0.5-2.141-2.609-3.523-4.781-3    c-2.157,0.484-3.506,2.625-3.014,4.781c0.193,0.881,5.217,21.692,34.252,34.76c0.532,0.243,1.086,0.352,1.641,0.352    c1.524,0,2.985-0.875,3.646-2.36C304.508,343.572,303.61,341.205,301.596,340.299z" data-original="#000000" class="active-path" data-old_color="#ffffff" fill="#ffffff"/>
	</g>
</g><g>
	<g>
		<path d="M300.612,356.001c-29.816-4.975-37.111-14.014-37.361-14.334c-1.234-1.789-3.68-2.266-5.492-1.055    c-1.843,1.219-2.351,3.695-1.132,5.539c0.804,1.226,8.857,12.099,42.673,17.74c0.219,0.039,0.445,0.055,0.664,0.055    c1.914,0,3.607-1.382,3.935-3.343C304.266,358.423,302.792,356.36,300.612,356.001z" data-original="#000000" class="active-path" data-old_color="#ffffff" fill="#ffffff"/>
	</g>
</g><g>
	<g>
		<path d="M315.954,339.73c-8.82,0-15.998,7.18-15.998,15.998c0,8.82,7.178,15.998,15.998,15.998    c8.819,0,15.996-7.178,15.996-15.998C331.95,346.91,324.772,339.73,315.954,339.73z M315.954,363.728c-4.414,0-8-3.586-8-8    c0-4.412,3.586-7.998,8-7.998c4.412,0,7.998,3.586,7.998,7.998C323.952,360.142,320.366,363.728,315.954,363.728z" data-original="#000000" class="active-path" data-old_color="#ffffff" fill="#ffffff"/>
	</g>
</g><g>
	<g>
		<path d="M355.946,387.943H275.96c-2.211,0-4,1.789-4,3.998c0,2.211,1.789,4,4,4h79.986c2.211,0,4-1.79,4-4    C359.946,389.732,358.157,387.943,355.946,387.943z" data-original="#000000" class="active-path" data-old_color="#ffffff" fill="#ffffff"/>
	</g>
</g><g>
	<g>
		<path d="M339.95,403.941h-47.994c-2.209,0-3.998,1.787-3.998,3.998s1.789,4,3.998,4h47.994c2.211,0,3.998-1.789,3.998-4    S342.161,403.941,339.95,403.941z" data-original="#000000" class="active-path" data-old_color="#ffffff" fill="#ffffff"/>
	</g>
</g><g>
	<g>
		<path d="M307.954,307.954c-2.211,0-4,1.789-4,4v7.998c0,2.211,1.789,4,4,4s4-1.789,4-4v-7.998    C311.954,309.743,310.165,307.954,307.954,307.954z" data-original="#000000" class="active-path" data-old_color="#ffffff" fill="#ffffff"/>
	</g>
</g><g>
	<g>
		<path d="M323.952,307.954c-2.211,0-4,1.789-4,4v7.998c0,2.211,1.789,4,4,4s4-1.789,4-4v-7.998    C327.952,309.743,326.163,307.954,323.952,307.954z" data-original="#000000" class="active-path" data-old_color="#ffffff" fill="#ffffff"/>
	</g>
</g><g>
	<g>
		<path d="M467.954,291.956c-17.646,0-31.996,14.35-31.996,31.996c0,2.209,1.789,3.998,4,3.998s4-1.789,4-3.998    c0-13.232,10.764-23.996,23.996-23.996s23.996,10.764,23.996,23.996c0,2.209,1.789,3.998,4,3.998s3.998-1.789,3.998-3.998    C499.948,306.306,485.6,291.956,467.954,291.956z" data-original="#000000" class="active-path" data-old_color="#ffffff" fill="#ffffff"/>
	</g>
</g><g>
	<g>
		<path d="M446.824,421.171c-0.147-0.156-14.887-15.92-14.887-41.533c0-13.545,2.927-20.793,6.029-28.463    c2.945-7.282,5.992-14.811,5.992-27.223c0-2.211-1.789-4-4-4s-4,1.789-4,4c0,10.85-2.623,17.348-5.404,24.223    c-3.101,7.67-6.617,16.358-6.617,31.463c0,28.965,16.42,46.345,17.115,47.072c0.789,0.813,1.828,1.227,2.875,1.227    c1,0,1.992-0.375,2.774-1.118C448.293,425.296,448.34,422.765,446.824,421.171z" data-original="#000000" class="active-path" data-old_color="#ffffff" fill="#ffffff"/>
	</g>
</g><g>
	<g>
		<path d="M505.34,348.183c-2.774-6.882-5.391-13.373-5.391-24.23c0-2.211-1.787-4-3.998-4s-4,1.789-4,4    c0,12.404,3.031,19.934,5.969,27.215c3.084,7.67,6.006,14.918,6.006,28.471c0,25.613-14.741,41.377-14.889,41.533    c-1.516,1.593-1.469,4.125,0.125,5.648c0.781,0.742,1.773,1.117,2.773,1.117c1.047,0,2.086-0.414,2.876-1.227    c0.695-0.726,17.113-18.107,17.113-47.072C511.924,364.54,508.426,355.845,505.34,348.183z" data-original="#000000" class="active-path" data-old_color="#ffffff" fill="#ffffff"/>
	</g>
</g><g>
	<g>
		<path d="M467.931,347.948c-13.701,0-15.959-4.594-16.123-4.977c-0.508-2.055-2.563-3.336-4.633-2.953    c-2.162,0.422-3.584,2.516-3.17,4.688c0.227,1.148,2.772,11.24,23.926,11.24c2.211,0,4-1.789,4-3.998    C471.931,349.737,470.142,347.948,467.931,347.948z" data-original="#000000" class="active-path" data-old_color="#ffffff" fill="#ffffff"/>
	</g>
</g><g>
	<g>
		<path d="M488.716,339.893c-2.148-0.343-4.232,0.891-4.654,3.055c-0.016,0.047-1.906,5-16.131,5c-2.211,0-4,1.789-4,4    c0,2.209,1.789,3.998,4,3.998c21.152,0,23.699-10.091,23.926-11.241C492.271,342.534,490.88,340.315,488.716,339.893z" data-original="#000000" class="active-path" data-old_color="#ffffff" fill="#ffffff"/>
	</g>
</g><g>
	<g>
		<path d="M457.987,372.514c-11.498-6.883-14.169-13.607-14.271-13.865c-0.703-2.07-2.945-3.195-5.031-2.5    c-2.094,0.688-3.242,2.945-2.547,5.047c0.312,0.961,3.5,9.662,17.74,18.176c0.649,0.39,1.352,0.57,2.055,0.57    c1.359,0,2.679-0.695,3.429-1.944C460.501,376.1,459.876,373.647,457.987,372.514z" data-original="#000000" class="active-path" data-old_color="#ffffff" fill="#ffffff"/>
	</g>
</g><g>
	<g>
		<path d="M457.105,388.115c-9.086-2.774-14.568-7.211-14.623-7.258c-1.719-1.398-4.219-1.156-5.633,0.547    c-1.399,1.703-1.164,4.211,0.531,5.617c0.274,0.227,6.68,5.467,17.381,8.748c0.391,0.117,0.789,0.172,1.172,0.172    c1.711,0,3.297-1.11,3.826-2.828C460.4,390.998,459.214,388.763,457.105,388.115z" data-original="#000000" class="active-path" data-old_color="#ffffff" fill="#ffffff"/>
	</g>
</g><g>
	<g>
		<path d="M497.223,356.197c-2.078-0.719-4.328,0.39-5.078,2.445c-0.023,0.07-2.609,6.889-14.271,13.873    c-1.891,1.132-2.516,3.586-1.375,5.484c0.75,1.248,2.071,1.943,3.43,1.943c0.703,0,1.406-0.179,2.054-0.569    c14.24-8.514,17.426-17.215,17.738-18.176C500.409,359.119,499.284,356.908,497.223,356.197z" data-original="#000000" class="active-path" data-old_color="#ffffff" fill="#ffffff"/>
	</g>
</g><g>
	<g>
		<path d="M499.003,381.388c-1.412-1.703-3.928-1.929-5.631-0.523c-0.054,0.039-5.422,4.445-14.615,7.25    c-2.109,0.648-3.297,2.883-2.656,4.998c0.531,1.719,2.117,2.828,3.828,2.828c0.383,0,0.781-0.055,1.172-0.172    c10.701-3.281,17.108-8.521,17.381-8.748C500.175,385.615,500.417,383.091,499.003,381.388z" data-original="#000000" class="active-path" data-old_color="#ffffff" fill="#ffffff"/>
	</g>
</g><g>
	<g>
		<path d="M495.927,427.937h-55.992c-2.211,0-4,1.789-4,3.998c0,2.211,1.789,4,4,4h55.992c2.211,0,3.998-1.789,3.998-4    C499.925,429.726,498.138,427.937,495.927,427.937z" data-original="#000000" class="active-path" data-old_color="#ffffff" fill="#ffffff"/>
	</g>
</g><g>
	<g>
		<path d="M467.931,307.954c-8.818,0-15.998,7.178-15.998,15.998c0,8.818,7.18,15.996,15.998,15.996s15.998-7.177,15.998-15.996    C483.929,315.132,476.749,307.954,467.931,307.954z M467.931,331.95c-4.414,0-8-3.586-8-7.998c0-4.414,3.586-8,8-8    s7.998,3.586,7.998,8C475.929,328.364,472.345,331.95,467.931,331.95z" data-original="#000000" class="active-path" data-old_color="#ffffff" fill="#ffffff"/>
	</g>
</g><g>
	<g>
		<path d="M467.931,371.945c-6.617,0-11.998,5.383-11.998,11.998c0,6.617,5.381,11.998,11.998,11.998    c6.615,0,11.998-5.381,11.998-11.998C479.929,377.328,474.546,371.945,467.931,371.945z M467.931,387.942c-2.203,0-4-1.797-4-4    s1.797-4,4-4s4,1.797,4,4S470.134,387.942,467.931,387.942z" data-original="#000000" class="active-path" data-old_color="#ffffff" fill="#ffffff"/>
	</g>
</g><g>
	<g>
		<path d="M479.929,411.939h-23.996c-2.211,0-4,1.789-4,4c0,2.209,1.789,3.998,4,3.998h23.996c2.211,0,4-1.789,4-3.998    C483.929,413.728,482.14,411.939,479.929,411.939z" data-original="#000000" class="active-path" data-old_color="#ffffff" fill="#ffffff"/>
	</g>
</g></g> </svg>
