<svg id="TOP" xmlns="http://www.w3.org/2000/svg" viewBox="0 0 95 95.98">
  <defs>
    <style>
      .cls-1 {
        fill: #fff;
      }
    </style>
  </defs>
  <title>sonasober-icons</title>
  <g>
    <path class="cls-1" d="M67.1,96a31.32,31.32,0,0,1-10.52-1.91c-6.71-2.34-13.53-2.23-20.45-.69-4.61,1-9.3,1.74-14,2.36-8,1.07-16.17-4-18.32-11.26A17,17,0,0,1,4.3,73.4c1.2-3.15,3.74-5,6.63-6.45,2.17-1.08,4.37-2.1,6.58-3.11A21.36,21.36,0,0,0,26.19,56c1.67-2.46,3.24-5,5.1-7.32,4.28-5.3,10.17-6.19,16.48-5.55,5.56,0.56,9.69,3.57,13,7.87a23.52,23.52,0,0,1,1.75,2.33c4.27,7.23,10.24,12.72,17.29,17.16a17,17,0,0,1,3.85,3.32,12.6,12.6,0,0,1-5.84,20.45,26.41,26.41,0,0,1-4.4,1.09C71.34,95.68,69.21,95.79,67.1,96Z"/>
    <path class="cls-1" d="M73.89,23.61a26.39,26.39,0,0,1-5.56,15.84,8.46,8.46,0,0,1-6,3.48c-3.41.25-5.59-1.76-7.24-4.36-3.06-4.8-3.75-10.22-3.38-15.74,0.38-5.7,1.77-11.14,5.58-15.66,3.26-3.87,7.42-4.65,10.8-1.69a16.13,16.13,0,0,1,3.63,5.13C73.42,14.11,73.91,17.52,73.89,23.61Z"/>
    <path class="cls-1" d="M46.21,19.89c-0.12,5.45-1.08,10.77-4.41,15.38A11.18,11.18,0,0,1,39.11,38c-3.62,2.47-7.52,1.52-10.44-2.36A23.14,23.14,0,0,1,24.4,24.33c-0.77-6.12-.26-12.12,2.52-17.75A16.23,16.23,0,0,1,29,3.38c3.94-4.72,9.21-4.46,12.78.57C45.14,8.7,46.14,14.11,46.21,19.89Z"/>
    <path class="cls-1" d="M72.7,48.63c0.55-7.53,2.34-13.9,7.94-18.54,4.71-3.9,10.15-2.58,12.71,2.93,3.54,7.63,1.17,19.77-5,25.51C82.55,64,75.69,62,73.65,54.32A54.91,54.91,0,0,1,72.7,48.63Z"/>
    <path class="cls-1" d="M22.38,39.2a19.1,19.1,0,0,1-3,10.12c-3.28,4.69-9,5.39-13.23,1.58-6.11-5.47-8-16.58-4-23.8,3.7-6.73,10.9-7.38,15.77-1.43C21,29.56,22.19,34.12,22.38,39.2Z"/>
  </g>
</svg>
