<svg id="TOP" xmlns="http://www.w3.org/2000/svg" viewBox="0 0 95 89.32">
  <defs>
    <style>
      .cls-1 {
        fill: #fff;
      }
    </style>
  </defs>
  <title>sonasober-layout draft</title>
  <path class="cls-1" d="M94.74,67.31A14.77,14.77,0,0,0,91.53,62a30.3,30.3,0,0,0-6.95-4.55c-3.69-1.84-7.66-3.13-11.32-5a39.41,39.41,0,0,1-13.11-11.1c-2.48-3.19-5.07-6.26-10-7.45,1.53-1.35,2.8-2.15,3.6-3.28a10,10,0,0,0,2-4.31,7.93,7.93,0,0,0-6.51-8.77,8.58,8.58,0,0,0-9.79,5.74,2.4,2.4,0,0,0,1.12,3.11,2.46,2.46,0,0,0,3.3-.64,12.48,12.48,0,0,1,1.05-1.72c0.87-.68,2-1.61,2.87-1.53a3.55,3.55,0,0,1,2.5,2,4.11,4.11,0,0,1-.8,3.07c-0.75,1.1-2.38,1.73-2.83,2.88-1.15,3-3.86,3.81-6.1,5.46-2.58,1.89-4.68,4.49-6.84,6.91A42.68,42.68,0,0,1,20.79,53c-4.72,2.32-9.6,4.32-14.32,6.65A11.75,11.75,0,0,0,.66,65.7c-1.65,4-.15,6.2,4.15,6.2h85.4a12.65,12.65,0,0,0,1.64,0A3.33,3.33,0,0,0,94.74,67.31Zm-81.43-.94a31.7,31.7,0,0,1,2.57-2c5.61-3.57,11.2-7.17,16.9-10.6,4.17-2.51,8.43-4.88,12.78-7a5.19,5.19,0,0,1,4,0,73,73,0,0,1,7.21,4.18Q68.36,57.95,80,65a18.23,18.23,0,0,1,1.62,1.25C80,67.22,15.46,67.36,13.31,66.38Z"/>
</svg>
