<svg id="TOP" xmlns="http://www.w3.org/2000/svg" viewBox="0 0 95 89.32">
  <defs>
    <style>
      .cls-1 {
        fill: #fff;
      }
    </style>
  </defs>
  <title>test</title>
  <g>
    <path class="cls-1" d="M93.21,21.8C91.67,11.4,85,4.16,74.69,2.49A171.44,171.44,0,0,0,45.28.1C40.47-.32,34.73.72,29,1A87.57,87.57,0,0,0,18.59,2.34C11.36,3.52,4.15,10.7,2.68,17.87a139.55,139.55,0,0,0-.65,51c1.65,10.07,8.1,16.38,18.11,18.32A132.08,132.08,0,0,0,37,89a160.84,160.84,0,0,0,38.88-2.37c8.43-1.52,13.9-6.91,16.42-15C93.34,68.26,93.54,64.58,94,61A143,143,0,0,0,93.21,21.8ZM85.3,57.68a62.39,62.39,0,0,1-1.62,11c-1.79,6.37-6.77,8.82-13,9.6A210.53,210.53,0,0,1,46.19,80.1a172.28,172.28,0,0,1-24.11-1.8c-5.61-.84-9.39-4.27-10.43-9.93A124.21,124.21,0,0,1,10.32,29.6c0.36-2.74.65-5.49,1.1-8.22,0.9-5.48,4.41-9.34,9.79-10.2A153.65,153.65,0,0,1,60.45,9.92c4.42,0.43,8.82,1.1,13.22,1.69,5.53,0.74,9.3,4.87,10.26,10.44A134,134,0,0,1,85.3,57.68Z"/>
    <path class="cls-1" d="M47.51,70.1c-6.82-.13-13.34-1.4-19.23-5-3.2-2-4.19-4.76-2.64-7.14s3.82-2.63,7.25-.8c9.86,5.26,19.75,5.22,29.57-.12,3.23-1.76,5.81-1.44,7.18,1.06s0.42,5.08-2.58,6.93C61.07,68.7,54.44,70,47.51,70.1Z"/>
    <path class="cls-1" d="M23.69,35.69c0-3.75,2.34-6,6.09-5.91A5.86,5.86,0,0,1,35.7,35.7a6,6,0,0,1-6.31,6C25.9,41.59,23.66,39.25,23.69,35.69Z"/>
    <path class="cls-1" d="M71.54,35.79c0,3.67-2.12,5.84-5.7,5.87a6,6,0,0,1-6.16-6.06,5.72,5.72,0,0,1,6-5.82C69.43,29.74,71.55,31.89,71.54,35.79Z"/>
  </g>
</svg>
