<?xml version="1.0"?>
<svg xmlns="http://www.w3.org/2000/svg" xmlns:xlink="http://www.w3.org/1999/xlink" version="1.1" id="Capa_1" x="0px" y="0px" viewBox="0 0 512 512" style="enable-background:new 0 0 512 512;" xml:space="preserve" width="512px" height="512px" class=""><g><g>
	<g>
		<path d="M511.95,160.445c-0.007-0.075-0.023-0.148-0.032-0.222c-0.031-0.249-0.064-0.498-0.114-0.746    c-0.032-0.162-0.078-0.318-0.118-0.477c-0.04-0.155-0.073-0.311-0.12-0.466c-0.076-0.248-0.167-0.488-0.26-0.727    c-0.025-0.064-0.044-0.129-0.071-0.193c-0.138-0.331-0.292-0.653-0.462-0.965l-52.911-98.096c2.139-1.335,4.083-2.967,5.775-4.885    c4.547-5.155,7.051-11.984,7.051-19.228c0-13.741-9.885-28.344-28.204-28.344H320.828c-8.454,0-15.966,3.238-21.151,9.119    c-4.547,5.155-7.051,11.983-7.051,19.227c0,9.6,4.83,19.614,13.984,24.782l-61.867,96.845c-0.049,0.077-0.087,0.157-0.133,0.234    c-0.108,0.179-0.214,0.359-0.311,0.545c-0.062,0.119-0.117,0.24-0.173,0.36c-0.082,0.174-0.162,0.348-0.234,0.527    c-0.056,0.141-0.105,0.282-0.155,0.425c-0.056,0.162-0.112,0.323-0.16,0.489c-0.048,0.165-0.088,0.33-0.127,0.496    c-0.035,0.148-0.07,0.295-0.099,0.445c-0.036,0.188-0.061,0.376-0.086,0.564c-0.018,0.134-0.037,0.268-0.049,0.403    c-0.018,0.206-0.025,0.412-0.031,0.618c-0.002,0.093-0.014,0.183-0.014,0.276v82.504c-4.911,2.615-9.451,5.949-13.476,9.937    c-3.33-0.81-6.752-1.219-10.238-1.219c-17.805,0-33.354,10.967-39.914,26.642c-12.013-3.593-24.874-1.771-35.69,5.491    c-12.119,8.136-19.038,21.385-19.42,36.183h-8.775L67.19,182.399c-1.748-5.002-5.45-8.957-10.423-11.137    c-5.201-2.279-11.169-2.295-16.377-0.043l-28.12,12.167c-5.08,2.199-9.098,6.443-11.023,11.647    c-1.88,5.083-1.63,10.518,0.704,15.305l54.991,112.723c-2.38,1.828-3.921,4.694-3.921,7.928    c0,53.836,18.456,99.159,53.371,131.071c30.931,28.271,72.486,43.841,117.007,43.845h0.016c11.724,0,23.238-1.09,34.411-3.197H502    c5.523,0,10-4.477,10-10V161.509C512.003,161.155,511.985,160.8,511.95,160.445z M320.828,26.095h121.656    c7.612,0,8.204,6.388,8.204,8.345c0,1.958-0.592,8.346-8.204,8.346H320.828c-7.611,0-8.202-6.388-8.202-8.345    C312.626,32.483,313.217,26.095,320.828,26.095z M322.054,72.196l44.695,79.255h-95.325L322.054,72.196z M155,301.41    c7.775-5.22,17.633-5.076,25.727,0.374c2.96,1.992,6.756,2.257,9.964,0.695c3.208-1.562,5.34-4.715,5.595-8.273    c0.868-12.075,11.046-21.534,23.172-21.534c3.234,0,6.362,0.651,9.298,1.935c4.168,1.824,9.041,0.603,11.858-2.969    c7.23-9.167,18.062-14.424,29.718-14.424c17.611,0,32.744,11.949,36.8,29.057c0.805,3.395,3.322,6.125,6.64,7.204    c3.319,1.077,6.96,0.349,9.606-1.925c4.204-3.611,9.575-5.6,15.125-5.6c12.811,0,23.233,10.423,23.233,23.234    c0,4.181-1.128,8.253-3.224,11.806H144.439C144.781,312.814,148.471,305.793,155,301.41z M20.071,201.86    c0.037-0.047,0.087-0.095,0.143-0.119l28.119-12.167c0.047-0.021,0.108-0.03,0.169-0.032l45.967,131.446H78.187L20.071,201.86z     M255.692,482.757c-0.548,0.055-1.079,0.163-1.598,0.302c-9.951,1.875-20.216,2.844-30.676,2.844h-0.015v0.001    c-70.12-0.006-145.418-45.443-150.145-144.916h35.227c0.025,0.001,0.05,0.003,0.075,0.003c0.023,0,0.047-0.003,0.07-0.003h26.635    c0.015,0,0.03,0.002,0.045,0.002c0.013,0,0.026-0.002,0.039-0.002h238.283c-2.108,43.642-18.129,80.243-46.653,106.302    C307.322,465.247,282.713,477.384,255.692,482.757z M373.869,482.708h-61.651c10.133-5.853,19.606-12.757,28.248-20.653    c13.718-12.533,24.884-27.141,33.402-43.509V482.708z M373.869,284.363c-7.831-11.125-20.76-18.415-35.366-18.415    c-5.671,0-11.242,1.116-16.41,3.236c-9.587-19.32-29.365-31.971-51.762-31.971c-2.415,0-4.803,0.164-7.161,0.455V171.45h110.699    V284.363z M339.707,62.786h97.714v-0.001l47.824,88.665l-95.535,0.001L339.707,62.786z M492.001,482.707h-98.132v-30.588h98.132    V482.707z M492.001,432.118h-98.132V414.47h98.132V432.118z M492.001,394.471h-98.132v-130.75h98.132V394.471z M492.001,243.721    h-98.132v-17.648h98.132V243.721z M492.001,206.073h-98.132V171.45l98.132-0.001V206.073z" data-original="#000000" class="active-path" data-old_color="#000000" fill="#FFFFFF"/>
	</g>
</g><g>
	<g>
		<path d="M167.574,429.082l-0.265-0.183c-4.546-3.136-10.773-1.995-13.91,2.552c-3.136,4.546-1.994,10.773,2.552,13.91l0.321,0.221    c1.728,1.184,3.695,1.751,5.643,1.751c3.188,0,6.321-1.521,8.259-4.35C173.293,438.427,172.129,432.203,167.574,429.082z" data-original="#000000" class="active-path" data-old_color="#000000" fill="#FFFFFF"/>
	</g>
</g><g>
	<g>
		<path d="M145.041,409.875c-9.071-9.537-20.537-24.39-23.649-40.993c-1.018-5.429-6.245-8.999-11.671-7.987    c-5.429,1.017-9.004,6.243-7.987,11.671c4.013,21.41,17.884,39.601,28.815,51.093c1.965,2.066,4.604,3.108,7.247,3.108    c2.476,0,4.956-0.914,6.891-2.754C148.688,420.207,148.847,413.877,145.041,409.875z" data-original="#000000" class="active-path" data-old_color="#000000" fill="#FFFFFF"/>
	</g>
</g></g> </svg>
