<?xml version="1.0"?>
<svg xmlns="http://www.w3.org/2000/svg" xmlns:xlink="http://www.w3.org/1999/xlink" version="1.1" id="Capa_1" x="0px" y="0px" viewBox="0 0 512 512" style="enable-background:new 0 0 512 512;" xml:space="preserve" width="512px" height="512px" class=""><g><g>
	<g>
		<path d="M487.897,278.916l-62.812-72.49c-10.235-11.81-23.41-18.175-36.426-17.918c-3.497-5.278-8.29-9.679-14.011-12.644    c-1.321-7.266-4.81-13.984-10.163-19.4c-7.122-7.207-16.585-11.176-26.647-11.176c-6.85,0-13.532,1.901-19.313,5.383    c-6.52-5.109-14.645-7.993-23.094-7.993c-10.294,0-20.233,4.302-27.271,11.804c-5.044,5.378-8.355,12.137-9.588,19.319    c-7.927,2.761-14.567,8.082-19.009,14.941c-11.529,1.183-22.805,7.392-31.726,17.685l-62.812,72.491    c-10.265,11.302-20.542,24.942-19.165,40.468c1.184,13.35,10.251,24.491,23.501,37.114l74.076,70.562l0.2,62.282    c0.018,5.51,4.49,9.968,10,9.968h165.755c5.517,0,9.991-4.467,10-9.984l0.1-62.273l74.069-70.555    c13.247-12.619,22.313-23.759,23.5-37.112C508.443,303.851,498.164,290.215,487.897,278.916z M269.125,191.805    c5.338-0.557,9.285-5.229,8.941-10.585c-0.312-4.87,1.351-9.506,4.681-13.057c3.318-3.538,7.822-5.486,12.682-5.486    c5.59,0,10.878,2.716,14.147,7.267c1.753,2.441,4.511,3.964,7.511,4.147c3.002,0.184,5.922-0.991,7.961-3.2    c3.335-3.614,7.877-5.604,12.789-5.604c4.673,0,9.084,1.859,12.419,5.234c3.267,3.306,5.036,7.629,4.981,12.174    c-0.053,4.483,2.885,8.455,7.188,9.715c7.357,2.156,12.496,9.023,12.496,16.701c0,9.595-7.806,17.402-17.401,17.402    c-4.497,0-8.764-1.71-12.014-4.813c-1.932-1.845-4.419-2.768-6.906-2.768c-2.486,0-4.973,0.922-6.905,2.767    c-3.251,3.104-7.519,4.814-12.016,4.814c-6.538,0-12.467-3.614-15.474-9.431c-1.717-3.322-5.144-5.408-8.884-5.408    c-3.74,0-7.166,2.087-8.883,5.409c-3.006,5.817-8.935,9.431-15.474,9.431c-9.595,0-17.401-7.807-17.401-17.402    C253.563,200.172,260.253,192.732,269.125,191.805z M253.728,266.472c0.039-0.172,0.066-0.346,0.096-0.519    c1.508-7.264,4.281-14.17,8.222-20.52c2.861,0.701,5.845,1.082,8.918,1.082c9.127,0,17.701-3.275,24.359-8.994    c6.657,5.719,15.23,8.994,24.357,8.994c6.737,0,13.235-1.786,18.92-5.128c5.686,3.342,12.183,5.128,18.92,5.128    c4.607,0,9.018-0.842,13.097-2.372c6.717,10.331,10.374,22.461,10.402,34.892c0.038,17.168-6.61,33.323-18.722,45.49    c-12.111,12.166-28.237,18.888-45.404,18.927c-17.163,0.016-33.323-6.61-45.489-18.722    c-12.166-12.112-18.888-28.237-18.927-45.404C252.468,274.953,252.895,270.656,253.728,266.472z M400.001,292.273l19.868,22.928    l-58.855,48.124c-13.393,0.017-26.862,0.025-40.336,0.026c21.103-0.963,40.796-9.651,55.795-24.717    C389.185,325.865,397.292,309.741,400.001,292.273z M312.634,363.352c-13.605-0.001-27.206-0.009-40.729-0.026l-58.854-48.124    l20.351-23.486c2.641,17.817,10.896,34.25,23.893,47.188C272.228,353.768,291.74,362.355,312.634,363.352z M487.14,317.616    c-0.534,6.012-5.73,13.31-17.373,24.4l-77.166,73.504c-1.978,1.884-3.099,4.494-3.103,7.225l-0.09,56.564H243.605l-0.182-56.58    c-0.009-2.725-1.129-5.329-3.103-7.208l-77.166-73.504c-11.645-11.092-16.84-18.389-17.374-24.398    c-0.548-6.177,3.808-13.991,14.123-25.336c0.054-0.059,0.106-0.118,0.159-0.179l62.889-72.579    c3.26-3.763,6.899-6.643,10.659-8.513c0.482,9.591,4.594,18.24,10.986,24.6c-4.546,7.483-7.843,15.55-9.842,24.001l-43.558,50.268    c-1.769,2.042-2.637,4.713-2.406,7.405c0.231,2.691,1.542,5.175,3.633,6.885l69.576,56.891c1.783,1.458,4.014,2.255,6.316,2.259    c15.972,0.022,32.058,0.033,48.143,0.033c16.085,0,32.17-0.011,48.142-0.033c2.303-0.004,4.534-0.801,6.316-2.258l69.577-56.892    c2.091-1.71,3.402-4.194,3.633-6.885c0.231-2.692-0.637-5.363-2.406-7.405l-42.815-49.41c-2.282-10.01-6.393-19.545-12.117-28.113    c5.048-6.343,8.085-14.352,8.128-23.061c5.253,1.476,10.504,4.981,15.05,10.227l62.89,72.58c0.053,0.061,0.106,0.122,0.161,0.181    C483.335,303.622,487.69,311.434,487.14,317.616z" data-original="#000000" class="active-path" data-old_color="#F9F5F5" fill="#FFFFFF"/>
	</g>
</g><g>
	<g>
		<path d="M204.5,48.193c-12.38-12.057-28.54-18.697-45.499-18.697c-3.786,0-7.513,0.35-11.159,0.999    C128.988,5.159,96.999-5.839,65.993,3.039C48.681,7.996,33.238,18.916,22.507,33.788C10.683,50.175,4.569,71.109,4.827,94.33    L4.812,502c0,5.523,4.477,10,10,10h85.774c5.523,0,10-4.477,10-10v-225.45c0-5.523-4.477-10-10-10H71.666    c0.033-26.864,0.187-54.013,0.338-80.366c0.17-29.797,0.347-60.604,0.348-91.152c0.806-12.79,5.705-21.72,12.817-23.334    c4.492-1.021,9.215,1.032,12.735,5.324c-1.417,5.389-2.176,11.006-2.198,16.751c-0.068,17.151,6.287,33.556,17.894,46.192    c1.854,2.018,4.454,3.187,7.194,3.234c0.057,0.001,0.114,0.001,0.17,0.001c2.679,0,5.248-1.075,7.129-2.988l76.558-77.843    c1.866-1.897,2.898-4.459,2.87-7.12C207.493,52.589,206.405,50.049,204.5,48.193z M90.586,286.55V492H63.148v-38.512    c0-5.523-4.477-10-10-10c-5.523,0-10,4.477-10,10V492H24.813V286.55H90.586z M106.462,57.843    c-7.547-5.479-16.755-7.683-25.719-5.65C68.037,55.076,53.91,67.612,52.367,94.149c-0.011,0.193-0.017,0.387-0.017,0.58    c0,30.591-0.177,61.474-0.348,91.34c-0.151,26.383-0.305,53.565-0.338,80.481H24.814l0.015-172.274c0-0.039,0-0.078-0.001-0.117    C24.33,51.149,48.61,28.821,71.499,22.266c21.182-6.067,42.268-0.029,56.427,15.437c-4.962,2.836-9.575,6.358-13.698,10.55    C111.313,51.218,108.721,54.431,106.462,57.843z M122.058,117.827c-10.11-17.803-7.955-40.922,6.429-55.548    c8.107-8.243,18.944-12.783,30.515-12.783c8.377,0,16.492,2.365,23.589,6.783L122.058,117.827z" data-original="#000000" class="active-path" data-old_color="#F9F5F5" fill="#FFFFFF"/>
	</g>
</g><g>
	<g>
		<path d="M179.035,138.024l-7.117-5.937c-4.242-3.539-10.547-2.969-14.085,1.271c-3.539,4.241-2.969,10.547,1.272,14.085    l7.116,5.938c1.871,1.561,4.142,2.322,6.401,2.322c2.863,0,5.706-1.224,7.684-3.594    C183.844,147.868,183.275,141.562,179.035,138.024z" data-original="#000000" class="active-path" data-old_color="#F9F5F5" fill="#FFFFFF"/>
	</g>
</g><g>
	<g>
		<path d="M213.105,123.928l-7.115-5.938c-4.24-3.539-10.546-2.97-14.085,1.271c-3.539,4.24-2.97,10.546,1.271,14.085l7.115,5.938    c1.87,1.561,4.143,2.323,6.402,2.323c2.863,0,5.705-1.223,7.683-3.593C217.914,133.774,217.345,127.467,213.105,123.928z" data-original="#000000" class="active-path" data-old_color="#F9F5F5" fill="#FFFFFF"/>
	</g>
</g><g>
	<g>
		<path d="M228.747,93.703l-10.414-8.689c-4.24-3.538-10.548-2.968-14.085,1.272c-3.538,4.241-2.969,10.547,1.271,14.085    l10.414,8.689c1.87,1.561,4.142,2.322,6.401,2.322c2.863,0,5.706-1.224,7.684-3.594    C233.556,103.547,232.987,97.241,228.747,93.703z" data-original="#000000" class="active-path" data-old_color="#F9F5F5" fill="#FFFFFF"/>
	</g>
</g><g>
	<g>
		<path d="M53.147,413.572c-5.523,0-10,4.477-10,10v0.365c0,5.523,4.477,10,10,10c5.523,0,10-4.477,10-10v-0.365    C63.148,418.049,58.67,413.572,53.147,413.572z" data-original="#000000" class="active-path" data-old_color="#F9F5F5" fill="#FFFFFF"/>
	</g>
</g></g> </svg>
