<svg id="TOP" xmlns="http://www.w3.org/2000/svg" viewBox="0 0 95.15 95.57">
  <defs>
    <style>
      .cls-1 {
        fill: #fff;
      }
    </style>
  </defs>
  <title>sonasober-icons</title>
  <path class="cls-1" d="M83.34,47.32l5.59,6.38,6.22-6.15c-4.79-4.73-9.49-9.41-14.25-14A4.36,4.36,0,0,1,79.45,30c0.08-6.86.06-13.72,0-20.58a2.24,2.24,0,0,0-1-1.74c-2.34-.17-4.71-0.08-7.33-0.08V23.57L47.22,0,0,47.63l5.88,6,5.65-6V87.43h-9v8.14H92V87.31H83.34v-40Zm-31.65,40H43.85V71.58h7.84v15.7Zm23.69-1c0,0.27-.06.54-0.1,0.93H59.43V63.65h-24V87.26H19.84c0-.75-0.11-1.48-0.11-2.22,0-14.55,0-29.11,0-43.66a4.45,4.45,0,0,1,1.45-3.48c8.74-8.67,17.43-17.39,26.46-26.42,3,3.07,5.77,6,8.62,8.88,6,6,12,11.93,17.91,18a4,4,0,0,1,1.19,2.46C75.4,56,75.38,71.14,75.38,86.32Z"/>
  <path class="cls-1" d="M47.49,23.91c-6.44.17-12,5.61-12,12a12,12,0,0,0,12,11.92A11.56,11.56,0,0,0,59.39,36.05C59.79,29,53.2,23.77,47.49,23.91Zm0,15.15a3.69,3.69,0,0,1-3.66-3.55A3.74,3.74,0,0,1,47.4,31.9a3.8,3.8,0,0,1,3.75,3.66A3.48,3.48,0,0,1,47.52,39.07Z"/>
</svg>
